<?xml version="1.0" encoding="UTF-8"?>
<svg id="Capa_1" data-name="Capa 1" xmlns="http://www.w3.org/2000/svg" viewBox="0 0 266.46 39.92">
  <defs>
    <style>
      .cls-1 {
        fill: #fff;
      }
    </style>
  </defs>
  <g>
    <path class="cls-1" d="M194.22,29.35c0,.27-.19,.73-.58,1.39-.39,.66-1.02,1.44-1.9,2.35-1.48,1.55-3.64,2.33-6.48,2.33-1.42,0-2.7-.21-3.86-.63-1.16-.42-2.15-1.03-2.97-1.82-.82-.79-1.45-1.74-1.91-2.83-.45-1.1-.68-2.32-.68-3.67v-6.27c0-1.35,.22-2.57,.68-3.67,.45-1.1,1.09-2.03,1.91-2.81,.82-.78,1.81-1.38,2.97-1.82,1.16-.44,2.44-.66,3.86-.66,1.18,0,2.24,.13,3.19,.4,.94,.27,1.8,.69,2.58,1.27,.51,.37,.95,.78,1.34,1.21s.72,.86,.99,1.26c.27,.4,.48,.78,.63,1.11,.15,.34,.23,.57,.23,.71,0,.17-.1,.3-.3,.41l-4.4,2.17c-.07,.04-.15,.05-.25,.05-.17,0-.29-.08-.35-.23-.07-.15-.19-.36-.35-.63-.44-.81-.91-1.42-1.42-1.82s-1.13-.61-1.87-.61c-1.08,0-1.96,.35-2.63,1.06s-1.01,1.57-1.01,2.58v6.27c0,1.01,.34,1.87,1.01,2.58,.67,.71,1.55,1.06,2.63,1.06,.74,0,1.36-.2,1.85-.61,.49-.4,.95-1.01,1.39-1.82,.3-.64,.56-.96,.76-.96,.1,0,.19,.02,.25,.05l4.4,2.17c.2,.1,.3,.24,.3,.41Z"/>
    <path class="cls-1" d="M214.62,34.91h-4.77c-.33,0-.5-.17-.5-.51v-13.76c0-1.01-.34-1.86-1.02-2.55-.68-.69-1.54-1.04-2.6-1.04s-1.97,.35-2.65,1.04c-.68,.69-1.02,1.54-1.02,2.55v13.76c0,.34-.17,.51-.51,.51h-4.76c-.34,0-.51-.17-.51-.51V3.54c0-.34,.17-.51,.51-.51h4.76c.34,0,.51,.17,.51,.51V12.2c0,.37,.12,.56,.35,.56,.3,0,.78-.17,1.44-.51,.66-.34,1.53-.51,2.61-.51,1.18,0,2.29,.22,3.34,.66,1.05,.44,1.96,1.05,2.76,1.85,.79,.79,1.42,1.74,1.87,2.83,.46,1.1,.68,2.29,.68,3.57v13.76c0,.34-.17,.51-.5,.51Z"/>
    <path class="cls-1" d="M235.76,34.91h-4.3c-.2,0-.34-.05-.41-.15s-.12-.21-.15-.33c-.03-.12-.07-.23-.1-.33-.03-.1-.1-.15-.2-.15-.27,0-.7,.16-1.29,.48s-1.34,.48-2.25,.48h-1.92c-1.04,0-2.01-.17-2.88-.51-.88-.34-1.63-.81-2.25-1.42-.62-.61-1.11-1.32-1.47-2.15-.35-.83-.53-1.73-.53-2.71v-.25c0-2.02,.66-3.66,1.97-4.91,1.32-1.25,3.04-1.87,5.16-1.87h4.86c.34,0,.51-.15,.51-.46v-.1l-.05-.61c-.1-1.04-.47-1.87-1.11-2.48s-1.48-.91-2.53-.91c-.47,0-.96,.13-1.47,.4s-.95,.64-1.32,1.11c-.37,.47-.63,.87-.78,1.19-.15,.32-.33,.48-.53,.48-.07,0-.17-.03-.3-.1l-4.15-2.17c-.2-.1-.3-.22-.3-.35,0-.2,.18-.66,.56-1.37,.37-.71,1-1.48,1.87-2.33,1.48-1.45,3.62-2.18,6.42-2.18,1.42,0,2.71,.21,3.87,.63,1.16,.42,2.16,1.02,2.98,1.79,.83,.78,1.47,1.71,1.92,2.81,.46,1.1,.68,2.32,.68,3.67v14.27c0,.34-.17,.51-.51,.51Zm-10.62-8.96c-.37,0-.69,.14-.96,.43-.27,.29-.4,.62-.4,.99v.76c0,.44,.13,.79,.38,1.06s.58,.4,.99,.4h1.92c1.58,0,2.71-.94,3.39-2.83v-.2c0-.13,.02-.34,.05-.61h-5.36Z"/>
    <path class="cls-1" d="M245.32,5.92c0,.91-.34,1.7-1.01,2.38s-1.47,1.01-2.38,1.01-1.75-.33-2.4-.99-.99-1.46-.99-2.4,.33-1.75,.99-2.4,1.46-.99,2.4-.99,1.7,.34,2.38,1.01c.67,.68,1.01,1.47,1.01,2.38Zm-1.01,28.99h-4.75c-.34,0-.51-.17-.51-.51V12.25c0-.34,.17-.51,.51-.51h4.75c.34,0,.51,.17,.51,.51v22.16c0,.34-.17,.51-.51,.51Z"/>
    <path class="cls-1" d="M265.96,34.91h-4.76c-.33,0-.5-.17-.5-.51v-13.76c0-1.01-.34-1.86-1.02-2.55s-1.54-1.04-2.6-1.04-1.97,.35-2.65,1.04c-.68,.69-1.02,1.54-1.02,2.55v13.76c0,.34-.17,.51-.51,.51h-4.75c-.34,0-.51-.17-.51-.51V12.25c0-.34,.17-.51,.51-.51h4.3c.2,0,.34,.05,.4,.15,.07,.1,.12,.22,.15,.35,.03,.13,.07,.25,.1,.35,.03,.1,.1,.15,.2,.15,.13,0,.32-.05,.56-.15,.24-.1,.52-.22,.86-.35,.34-.13,.73-.25,1.19-.35,.46-.1,.97-.15,1.54-.15,1.28,0,2.47,.22,3.57,.66,1.1,.44,2.05,1.04,2.86,1.82,.81,.78,1.44,1.71,1.9,2.81s.68,2.3,.68,3.62v13.76c0,.34-.17,.51-.5,.51Z"/>
  </g>
  <g>
    <g>
      <path class="cls-1" d="M64.2,7.27h-12.65c-.35,0-.51,.15-.51,.51v8.6c0,.35,.15,.51,.51,.51h10.37c.35,0,.51,.15,.51,.51v3.04c0,.35-.15,.51-.51,.51h-10.37c-.35,0-.51,.15-.51,.51v13.15c0,.35-.15,.51-.51,.51h-3.54c-.35,0-.51-.15-.51-.51V3.73c0-.35,.15-.51,.51-.51h17.2c.3,0,.51,.15,.51,.51v3.04c0,.35-.15,.5-.51,.5Z"/>
      <path class="cls-1" d="M85.87,35.55c-4.15,0-8.14-3.49-8.14-8.55v-10.12c0-.35-.15-.51-.51-.51h-2.78c-.35,0-.51-.15-.51-.51l.1-1.77,5.82-6.17,.35-.15h1.57c.35,0,.51,.15,.51,.51v3.54c0,.35,.15,.51,.51,.51h3.54c.35,0,.51,.15,.51,.51v3.04c0,.35-.15,.51-.51,.51h-3.54c-.35,0-.51,.15-.51,.51v10.12c0,1.06,.35,1.97,1.11,2.93,.46,.56,1.52,.91,3.04,1.57,.25,.1,.4,.2,.4,.51v3.04c0,.46-.25,.51-.96,.51Z"/>
      <path class="cls-1" d="M100.06,35.09c-2.98,0-4.35-1.67-5.01-1.67-.2,0-.35,.2-.35,.56v.61c0,.35-.15,.51-.51,.51h-3.03c-.35,0-.51-.15-.51-.51V3.73c0-.35,.15-.51,.51-.51h3.54c.35,0,.51,.15,.51,.51V13.44c0,.35,.15,.61,.41,.61,.46,0,1.92-1.72,4.86-1.72,4.7,0,8.4,3.64,8.4,8.6v5.56c0,5.11-3.69,8.6-8.8,8.6Zm4.25-14.16c0-2.48-1.97-4.55-4.55-4.55s-4.55,2.07-4.55,4.55v5.56c0,2.48,2.02,4.55,4.55,4.55s4.55-2.07,4.55-4.55v-5.56Z"/>
      <path class="cls-1" d="M121.32,35.6c-5.51,0-9.1-3.44-9.1-8.6v-6.58c0-5.16,3.59-8.6,9.1-8.6s9.1,3.49,9.1,8.6v6.58c0,5.16-3.59,8.6-9.1,8.6Zm4.55-15.17c0-2.48-2.02-4.55-4.55-4.55s-4.55,2.07-4.55,4.55v6.58c0,2.48,1.97,4.55,4.55,4.55s4.55-2.07,4.55-4.55v-6.58Z"/>
      <path class="cls-1" d="M142.59,35.6c-5.51,0-9.11-3.44-9.11-8.6v-6.58c0-5.16,3.59-8.6,9.11-8.6s9.1,3.49,9.1,8.6v6.58c0,5.16-3.59,8.6-9.1,8.6Zm4.55-15.17c0-2.48-2.02-4.55-4.55-4.55s-4.55,2.07-4.55,4.55v6.58c0,2.48,1.97,4.55,4.55,4.55s4.55-2.07,4.55-4.55v-6.58Z"/>
      <path class="cls-1" d="M173.81,34.69c0,.2-.2,.41-.56,.41h-4.45l-.46-.25-6.42-10.52c-.1-.2-.25-.3-.41-.3s-.3,.05-.4,.2l-1.92,1.97v8.4c0,.35-.15,.51-.51,.51h-3.54c-.35,0-.51-.15-.51-.51V3.73c0-.35,.15-.51,.51-.51h3.54c.35,0,.51,.15,.51,.51v15.78c0,.35,.2,.56,.46,.56,.15,0,.3-.05,.4-.2l6.73-7.38,.35-.15h4.3c.35,0,.56,.15,.56,.41,0,.15-.05,.3-.2,.46l-6.58,6.68c-.1,.15-.2,.25-.2,.35s.05,.15,.1,.25l8.6,13.86c.05,.1,.1,.25,.1,.35Z"/>
      <g>
        <rect class="cls-1" x="66.2" y="12.33" width="4.55" height="4.05" rx=".65" ry=".65"/>
        <path class="cls-1" d="M66.2,18.71v15.88c0,.28,.23,.51,.51,.51h3.54c.28,0,.51-.23,.51-.51v-15.88c0-.35-.28-.63-.63-.63h-3.29c-.35,0-.63,.28-.63,.63Z"/>
      </g>
    </g>
    <path class="cls-1" d="M19.96,0C8.94,0,0,8.94,0,19.96s8.94,19.96,19.96,19.96,19.96-8.94,19.96-19.96S30.99,0,19.96,0Zm1.91,29.4h6.6c.28-.73,.99-1.25,1.82-1.25,1.08,0,1.96,.88,1.96,1.96s-.88,1.96-1.96,1.96c-.82,0-1.53-.52-1.82-1.24h-6.61c-.29,.72-.99,1.24-1.82,1.24-1.08,0-1.96-.88-1.96-1.96,0-.85,.55-1.57,1.31-1.84v-6.56c-.54-.19-.97-.6-1.17-1.13h-6.6c-.2,.5-.59,.9-1.09,1.1v6.61c.72,.29,1.23,.99,1.23,1.81,0,1.08-.88,1.96-1.96,1.96s-1.96-.88-1.96-1.96c0-.83,.53-1.54,1.26-1.82v-6.59c-.74-.28-1.26-.99-1.26-1.82s.53-1.54,1.26-1.82v-6.59c-.74-.28-1.26-.99-1.26-1.82,0-1.08,.88-1.96,1.96-1.96,.83,0,1.53,.52,1.82,1.25h11.72c.29-.73,.99-1.25,1.82-1.25,1.08,0,1.96,.88,1.96,1.96s-.88,1.96-1.96,1.96c-.83,0-1.53-.52-1.82-1.25H11.63c-.2,.5-.59,.9-1.09,1.1v6.61c.5,.2,.9,.6,1.09,1.11h6.6c.29-.73,.99-1.25,1.82-1.25s1.53,.52,1.82,1.25h6.6c.29-.73,.99-1.25,1.82-1.25,1.08,0,1.96,.88,1.96,1.96s-.88,1.96-1.96,1.96c-.83,0-1.53-.52-1.82-1.25h-6.6c-.19,.49-.57,.88-1.05,1.09v6.65c.48,.21,.86,.6,1.05,1.09Z"/>
  </g>
</svg>