<?xml version="1.0" encoding="UTF-8"?>
<svg id="Capa_1" data-name="Capa 1" xmlns="http://www.w3.org/2000/svg" viewBox="0 0 273.41 40.14">
  <defs>
    <style>
      .cls-1 {
        fill: #fff;
      }

      .cls-2 {
        fill: #02c9da;
      }

      .cls-3 {
        fill: #7b58f9;
      }
    </style>
  </defs>
  <g>
    <path class="cls-3" d="M189.54,35.42c-.17,.05-.44,.08-.81,.08-1.08,0-2.24-.25-3.49-.76-1.25-.51-2.29-1.16-3.14-1.97-1.62-1.55-2.43-3.62-2.43-6.22v-8.9c0-.34-.17-.51-.51-.51h-2.63c-.34,0-.51-.17-.51-.51l.1-2.68,5.97-6.32,.35-.15h2.48c.34,0,.51,.17,.51,.51v3.34c0,.34,.17,.51,.51,.51h3.34c.34,0,.51,.17,.51,.51v4.3c0,.34-.17,.51-.51,.51h-3.34c-.34,0-.51,.17-.51,.51v8.9c0,.78,.24,1.48,.71,2.1,.47,.62,1.01,1,1.62,1.14,.71,.17,1.22,.28,1.54,.33,.32,.05,.48,.23,.48,.53v4.35c0,.24-.08,.38-.25,.43Z"/>
    <path class="cls-3" d="M204.51,18.15c-.34,0-.77-.17-1.29-.51-.52-.34-1.14-.51-1.85-.51-.98,0-1.8,.35-2.48,1.04-.67,.69-1.01,1.53-1.01,2.51v13.8c0,.34-.17,.51-.51,.51h-4.76c-.34,0-.51-.17-.51-.51V12.33c0-.34,.17-.51,.51-.51h4.3c.34,0,.51,.15,.51,.46v.71c0,.3,.15,.47,.46,.51l.3-.15c1.31-1.01,2.6-1.52,3.84-1.52,.88,0,1.57,.08,2.07,.25,.51,.17,.76,.38,.76,.65v4.87c0,.37-.12,.56-.35,.56Z"/>
    <path class="cls-3" d="M224.49,34.99h-4.3c-.2,0-.34-.05-.4-.15-.07-.1-.12-.21-.15-.33-.03-.12-.07-.23-.1-.33-.03-.1-.1-.15-.2-.15-.27,0-.7,.16-1.29,.48-.59,.32-1.34,.48-2.25,.48h-1.92c-1.05,0-2.01-.17-2.88-.51-.88-.34-1.63-.81-2.25-1.42-.62-.61-1.11-1.32-1.47-2.15-.35-.83-.53-1.73-.53-2.71v-.25c0-2.02,.66-3.66,1.97-4.91,1.32-1.25,3.04-1.87,5.16-1.87h4.86c.34,0,.51-.15,.51-.46v-.1l-.05-.61c-.1-1.04-.47-1.87-1.11-2.48-.64-.61-1.48-.91-2.53-.91-.47,0-.96,.13-1.47,.4-.51,.27-.94,.64-1.32,1.11-.37,.47-.63,.87-.78,1.19-.15,.32-.33,.48-.53,.48-.07,0-.17-.03-.3-.1l-4.15-2.18c-.2-.1-.3-.22-.3-.35,0-.2,.18-.66,.56-1.37,.37-.71,.99-1.48,1.87-2.33,1.48-1.45,3.62-2.18,6.42-2.18,1.42,0,2.71,.21,3.87,.63,1.16,.42,2.16,1.02,2.98,1.8,.83,.78,1.47,1.71,1.92,2.81,.46,1.1,.68,2.32,.68,3.67v14.27c0,.34-.17,.51-.51,.51Zm-10.62-8.95c-.37,0-.69,.14-.96,.43-.27,.29-.4,.62-.4,.99v.76c0,.44,.13,.79,.38,1.06,.25,.27,.58,.4,.99,.4h1.92c1.58,0,2.71-.94,3.39-2.83v-.2c0-.13,.02-.34,.05-.61h-5.36Z"/>
    <path class="cls-3" d="M237.95,34.69c-.1,.2-.25,.3-.46,.3h-3.64c-.17-.03-.32-.13-.46-.3l-8.95-22.16c-.07-.13-.1-.24-.1-.3,0-.27,.19-.4,.56-.4h5.11c.13,.07,.29,.17,.46,.3,1.18,3.14,2.22,5.86,3.11,8.17,.89,2.31,1.63,4.22,2.2,5.74,.88-2.33,1.61-4.38,2.2-6.15,.59-1.77,1.1-3.25,1.52-4.45,.42-1.2,.77-2.1,1.04-2.71,.27-.61,.54-.91,.81-.91h5.16c.37,0,.56,.14,.56,.4,0,.07-.03,.17-.1,.3l-9,22.16Z"/>
    <path class="cls-3" d="M265.06,24.88h-12.09c-.34,0-.51,.17-.51,.51v1.16c0,1.01,.34,1.87,1.02,2.58,.68,.71,1.56,1.06,2.65,1.06,.75,0,1.37-.2,1.86-.61,.49-.4,.96-1.01,1.4-1.82,.3-.64,.56-.96,.76-.96,.1,0,.19,.02,.25,.05l4.4,2.18c.2,.1,.3,.24,.3,.4,0,.27-.19,.73-.58,1.39-.39,.66-1.02,1.44-1.9,2.35-1.48,1.55-3.64,2.33-6.48,2.33-1.42,0-2.71-.21-3.87-.63s-2.16-1.03-2.98-1.82c-.83-.79-1.47-1.74-1.92-2.83-.46-1.1-.68-2.32-.68-3.67v-6.27c0-.78,.12-1.58,.35-2.4,.24-.83,.59-1.58,1.06-2.25,.91-1.38,2.07-2.44,3.47-3.19,1.4-.74,2.93-1.11,4.58-1.11s3.14,.37,4.55,1.11c1.42,.74,2.56,1.8,3.44,3.19,.47,.68,.83,1.43,1.06,2.25,.24,.83,.35,1.63,.35,2.4v4.1c0,.34-.17,.51-.51,.51Zm-5.41-5.36c0-.34-.09-.67-.28-1.01-.19-.34-.45-.65-.79-.94-.34-.29-.72-.51-1.15-.68-.43-.17-.86-.25-1.3-.25-.98,0-1.83,.31-2.52,.94-.7,.62-1.04,1.29-1.04,2,0,.3,.17,.46,.51,.46h6.06c.34,0,.51-.17,.51-.51Z"/>
    <path class="cls-3" d="M272.9,34.99h-4.76c-.34,0-.51-.17-.51-.51V3.63c0-.34,.17-.51,.51-.51h4.76c.34,0,.51,.17,.51,.51v30.86c0,.34-.17,.51-.51,.51Z"/>
  </g>
  <g>
    <path class="cls-2" d="M64.29,7.35h-12.65c-.35,0-.51,.15-.51,.51v8.6c0,.35,.15,.51,.51,.51h10.37c.35,0,.51,.15,.51,.51v3.04c0,.35-.15,.51-.51,.51h-10.37c-.35,0-.51,.15-.51,.51v13.15c0,.35-.15,.51-.51,.51h-3.54c-.35,0-.51-.15-.51-.51V3.81c0-.35,.15-.51,.51-.51h17.2c.3,0,.51,.15,.51,.51v3.04c0,.35-.15,.5-.51,.5Z"/>
    <path class="cls-2" d="M85.96,35.63c-4.15,0-8.14-3.49-8.14-8.55v-10.12c0-.35-.15-.51-.51-.51h-2.78c-.35,0-.51-.15-.51-.51l.1-1.77,5.82-6.17,.35-.15h1.57c.35,0,.51,.15,.51,.51v3.54c0,.35,.15,.51,.51,.51h3.54c.35,0,.51,.15,.51,.51v3.04c0,.35-.15,.51-.51,.51h-3.54c-.35,0-.51,.15-.51,.51v10.12c0,1.06,.35,1.97,1.11,2.93,.46,.56,1.52,.91,3.04,1.57,.25,.1,.4,.2,.4,.51v3.04c0,.46-.25,.51-.96,.51Z"/>
    <path class="cls-2" d="M100.15,35.18c-2.98,0-4.35-1.67-5.01-1.67-.2,0-.35,.2-.35,.56v.61c0,.35-.15,.51-.51,.51h-3.03c-.35,0-.51-.15-.51-.51V3.81c0-.35,.15-.51,.51-.51h3.54c.35,0,.51,.15,.51,.51V13.53c0,.35,.15,.61,.41,.61,.46,0,1.92-1.72,4.86-1.72,4.7,0,8.4,3.64,8.4,8.6v5.56c0,5.11-3.69,8.6-8.8,8.6Zm4.25-14.16c0-2.48-1.97-4.55-4.55-4.55s-4.55,2.07-4.55,4.55v5.56c0,2.48,2.02,4.55,4.55,4.55s4.55-2.07,4.55-4.55v-5.56Z"/>
    <path class="cls-2" d="M121.41,35.68c-5.51,0-9.1-3.44-9.1-8.6v-6.58c0-5.16,3.59-8.6,9.1-8.6s9.1,3.49,9.1,8.6v6.58c0,5.16-3.59,8.6-9.1,8.6Zm4.55-15.17c0-2.48-2.02-4.55-4.55-4.55s-4.55,2.07-4.55,4.55v6.58c0,2.48,1.97,4.55,4.55,4.55s4.55-2.07,4.55-4.55v-6.58Z"/>
    <path class="cls-2" d="M142.68,35.68c-5.51,0-9.11-3.44-9.11-8.6v-6.58c0-5.16,3.59-8.6,9.11-8.6s9.1,3.49,9.1,8.6v6.58c0,5.16-3.59,8.6-9.1,8.6Zm4.55-15.17c0-2.48-2.02-4.55-4.55-4.55s-4.55,2.07-4.55,4.55v6.58c0,2.48,1.97,4.55,4.55,4.55s4.55-2.07,4.55-4.55v-6.58Z"/>
    <path class="cls-2" d="M173.9,34.77c0,.2-.2,.41-.56,.41h-4.45l-.46-.25-6.42-10.52c-.1-.2-.25-.3-.41-.3s-.3,.05-.4,.2l-1.92,1.97v8.4c0,.35-.15,.51-.51,.51h-3.54c-.35,0-.51-.15-.51-.51V3.81c0-.35,.15-.51,.51-.51h3.54c.35,0,.51,.15,.51,.51v15.78c0,.35,.2,.56,.46,.56,.15,0,.3-.05,.4-.2l6.73-7.38,.35-.15h4.3c.35,0,.56,.15,.56,.41,0,.15-.05,.3-.2,.46l-6.58,6.68c-.1,.15-.2,.25-.2,.35s.05,.15,.1,.25l8.6,13.86c.05,.1,.1,.25,.1,.35Z"/>
    <g>
      <rect class="cls-2" x="66.29" y="12.41" width="4.55" height="4.05" rx=".65" ry=".65"/>
      <path class="cls-2" d="M66.29,18.79v15.88c0,.28,.23,.51,.51,.51h3.54c.28,0,.51-.23,.51-.51v-15.88c0-.35-.28-.63-.63-.63h-3.29c-.35,0-.63,.28-.63,.63Z"/>
    </g>
  </g>
  <circle class="cls-2" cx="20.07" cy="20.07" r="20.07"/>
  <path class="cls-1" d="M30.45,18c-.83,0-1.54,.52-1.83,1.25h-6.64c-.29-.73-1-1.25-1.83-1.25s-1.54,.52-1.83,1.25h-6.64c-.2-.51-.6-.91-1.1-1.11v-6.65c.5-.2,.9-.6,1.1-1.11h11.79c.29,.73,1,1.25,1.83,1.25,1.08,0,1.97-.88,1.97-1.97s-.88-1.97-1.97-1.97c-.83,0-1.54,.52-1.83,1.25H11.69c-.29-.73-1-1.25-1.83-1.25-1.08,0-1.97,.88-1.97,1.97,0,.84,.53,1.55,1.27,1.83v6.63c-.74,.28-1.27,.99-1.27,1.83s.53,1.55,1.27,1.83v6.63c-.74,.28-1.27,.99-1.27,1.83,0,1.08,.88,1.97,1.97,1.97s1.97-.88,1.97-1.97c0-.83-.51-1.53-1.24-1.82v-6.65c.5-.2,.9-.6,1.1-1.11h6.64c.29,.73,1,1.25,1.83,1.25s1.54-.52,1.83-1.25h2.61v7.75c-.73,.29-1.25,1-1.25,1.83,0,1.08,.88,1.97,1.97,1.97s1.97-.88,1.97-1.97c0-.83-.52-1.54-1.25-1.83v-7.75h2.61c.29,.73,1,1.25,1.83,1.25,1.08,0,1.97-.88,1.97-1.97s-.88-1.97-1.97-1.97Z"/>
</svg>